 <svg  version="1.0" xmlns="http://www.w3.org/2000/svg"  width="1023.000000pt" height="336.000000pt" viewBox="0 0 1023.000000 336.000000"  preserveAspectRatio="xMidYMid meet">  <g transform="translate(0.000000,336.000000) scale(0.100000,-0.100000)" fill="#004cff" stroke="none"> <path d="M1315 2860 c-234 -18 -430 -149 -529 -355 -18 -38 -39 -90 -44 -115 -8 -30 -12 -268 -12 -690 -1 -628 0 -647 20 -720 30 -105 72 -173 160 -260 76 -75 143 -116 255 -155 70 -24 271 -34 715 -34 444 0 645 10 715 34 112 39 179 80 255 155 84 83 126 150 161 255 24 70 24 71 27 703 3 618 2 635 -18 710 -30 110 -72 189 -142 266 -70 78 -149 133 -245 171 -55 23 -92 30 -193 36 -150 10 -998 9 -1125 -1z m1260 -98 c107 -38 178 -83 239 -151 11 -13 28 -31 37 -40 23 -22 76 -124 84 -161 4 -16 11 -32 16 -35 5 -4 9 -272 9 -661 0 -628 -1 -657 -20 -714 -22 -66 -64 -146 -89 -171 -9 -9 -26 -27 -37 -40 -62 -69 -134 -115 -234 -149 -57 -19 -86 -20 -702 -20 -587 1 -647 2 -693 18 -107 38 -178 83 -239 151 -11 13 -28 31 -37 40 -25 25 -67 105 -89 171 -19 57 -20 86 -20 714 0 389 4 657 9 661 5 3 12 19 16 35 8 37 61 139 84 161 9 9 26 27 37 40 59 66 133 115 228 148 47 17 99 18 701 19 596 1 654 0 700 -16z"/> <path d="M1880 2229 c-22 -5 -47 -22 -67 -46 -62 -73 -37 -141 91 -241 36 -29 66 -56 66 -61 0 -26 -33 -34 -124 -28 -116 8 -154 -2 -200 -53 -55 -61 -49 -112 22 -177 31 -30 111 -63 151 -63 26 0 81 -38 81 -56 0 -14 -9 -15 -67 -10 -38 3 -116 9 -176 12 -101 6 -109 5 -140 -16 -44 -30 -77 -79 -77 -115 0 -41 81 -119 140 -135 70 -19 111 -39 167 -81 98 -73 102 -72 258 25 173 108 225 193 225 369 0 93 3 108 30 166 26 54 30 76 31 147 1 101 -18 147 -89 223 -34 36 -72 62 -142 94 -109 52 -131 58 -180 46z m95 -98 c22 -16 55 -32 72 -35 18 -4 47 -21 64 -37 17 -16 35 -29 40 -29 5 0 20 -18 34 -40 22 -34 25 -51 25 -124 0 -62 -4 -87 -15 -96 -8 -7 -15 -18 -15 -24 0 -14 -64 -76 -79 -76 -15 0 -14 -27 2 -37 24 -15 47 -75 47 -121 -1 -123 -78 -216 -190 -231 -43 -6 -45 -8 -48 -41 -4 -38 -36 -80 -61 -80 -44 1 -78 69 -49 98 16 16 -27 31 -147 49 -122 19 -137 24 -154 56 -11 21 -11 28 4 51 23 35 50 34 255 -9 163 -34 203 -32 244 12 29 31 42 105 27 146 -14 36 -62 64 -125 72 -28 4 -77 13 -109 20 -33 8 -64 12 -71 9 -20 -8 -66 35 -66 61 0 45 60 78 103 57 12 -6 54 -16 92 -21 39 -6 85 -13 103 -17 55 -11 114 22 139 77 20 46 -5 118 -53 151 -21 15 -49 27 -60 28 -12 0 -49 18 -83 41 -57 38 -61 43 -61 79 0 32 4 39 23 43 36 7 69 -2 112 -32z"/> <path d="M8925 2211 c-41 -10 -76 -34 -106 -73 -37 -50 -48 -71 -49 -96 0 -37 -48 -78 -100 -86 -25 -4 -62 -18 -82 -31 -48 -32 -54 -31 -123 5 -65 34 -123 39 -184 14 -35 -14 -44 -14 -92 0 -39 12 -97 16 -219 16 -116 0 -170 4 -178 12 -7 7 -12 31 -12 54 0 34 -7 49 -41 88 -23 26 -54 53 -70 61 -36 19 -142 19 -177 1 -37 -19 -83 -70 -126 -138 -20 -32 -43 -58 -51 -58 -8 0 -24 19 -36 41 -26 52 -103 135 -144 156 -38 20 -132 20 -171 0 -17 -9 -49 -36 -72 -61 -45 -49 -50 -73 -32 -151 13 -58 -1 -70 -52 -44 -57 29 -172 51 -227 44 -25 -4 -79 -17 -119 -31 -40 -13 -78 -24 -85 -24 -22 0 -54 42 -71 94 -22 64 -68 122 -119 147 -55 28 -139 23 -185 -11 -46 -34 -100 -107 -112 -150 -5 -20 -21 -47 -34 -59 l-25 -23 -73 26 -73 27 -290 -3 -290 -3 -59 -37 c-58 -36 -59 -37 -90 -21 -17 9 -44 26 -59 37 -27 20 -45 21 -294 26 l-265 5 -36 45 c-71 89 -137 146 -188 164 -136 47 -291 38 -415 -25 -86 -42 -197 -155 -238 -241 -121 -251 -12 -547 249 -678 132 -66 305 -65 463 2 l49 21 55 -28 c46 -23 64 -27 113 -23 49 4 65 10 105 42 66 55 75 73 85 178 11 113 15 126 46 134 38 10 50 0 84 -73 47 -97 48 -140 11 -241 -17 -46 -31 -98 -31 -116 0 -35 36 -90 82 -126 30 -23 101 -35 152 -26 53 10 125 76 177 164 50 84 75 101 84 55 17 -84 30 -111 68 -151 23 -24 54 -50 69 -58 35 -18 99 -18 144 1 37 15 124 101 124 122 0 27 51 71 96 82 55 14 111 42 167 82 22 16 46 29 52 29 7 0 38 -21 69 -47 46 -37 66 -47 106 -51 67 -6 88 1 155 53 32 25 63 45 69 45 6 0 38 -18 71 -40 161 -108 351 -104 496 11 35 28 106 119 134 173 20 38 34 27 74 -53 23 -44 54 -96 71 -115 61 -69 165 -95 246 -61 19 8 60 41 92 75 32 33 63 60 70 60 7 0 39 -24 71 -54 116 -107 173 -123 383 -107 141 11 157 15 201 42 27 16 54 29 62 29 7 0 47 -16 89 -36 124 -59 238 -57 353 7 53 29 106 38 118 19 4 -6 25 -20 47 -31 61 -31 141 -24 198 19 24 18 53 32 63 32 10 0 45 -16 78 -36 54 -33 63 -36 118 -32 51 4 66 10 106 42 72 59 77 73 85 204 7 125 13 143 75 220 28 35 35 52 35 87 0 56 -9 80 -54 137 -19 26 -42 72 -51 101 -17 60 -92 149 -140 167 -59 22 -176 -1 -200 -40 -12 -19 -39 -10 -84 28 -25 20 -53 42 -61 48 -21 16 -89 24 -125 15z m129 -503 c1 -258 -3 -399 -9 -401 -5 -1 -46 -1 -90 1 l-80 3 1 392 c0 216 1 395 2 399 1 3 41 6 88 5 l87 -2 1 -397z m-4998 367 c10 -8 26 -15 34 -15 17 0 69 -25 112 -54 17 -11 25 -23 21 -32 -8 -21 -112 -124 -124 -124 -6 0 -23 14 -39 32 -28 31 -31 31 -123 32 -77 1 -99 -2 -114 -16 -11 -10 -24 -18 -30 -18 -12 0 -37 -35 -65 -90 -24 -45 -24 -146 -1 -197 19 -43 71 -103 89 -103 6 0 17 -7 24 -15 9 -11 33 -15 90 -15 57 0 81 4 90 15 7 8 19 15 27 15 7 0 16 7 19 15 12 31 56 16 106 -35 26 -27 48 -56 48 -65 0 -9 -13 -24 -30 -33 -16 -9 -30 -20 -30 -24 0 -5 -8 -8 -19 -8 -10 0 -24 -7 -31 -15 -7 -8 -26 -15 -42 -15 -16 0 -45 -7 -65 -15 -45 -19 -91 -19 -136 0 -20 8 -47 15 -61 15 -54 0 -167 81 -214 155 -59 90 -65 113 -65 231 0 87 4 117 17 135 9 13 16 30 16 37 0 26 122 162 145 162 7 0 18 7 25 15 7 8 22 15 34 15 12 0 31 7 42 15 27 21 222 21 250 0z m3083 -9 c13 -24 65 -166 81 -221 5 -16 20 -61 34 -100 14 -38 26 -78 26 -88 0 -27 30 -79 43 -74 10 3 26 49 47 137 9 40 28 97 41 122 5 10 18 46 30 80 11 35 24 72 29 83 5 11 13 34 18 50 l9 30 101 3 c99 3 102 2 102 -19 0 -12 -6 -30 -13 -38 -8 -9 -28 -52 -46 -96 -18 -44 -38 -93 -46 -110 -12 -30 -30 -76 -61 -157 -9 -24 -22 -56 -29 -73 -7 -16 -27 -70 -45 -120 -18 -49 -36 -99 -40 -110 -5 -11 -11 -28 -14 -37 -5 -15 -18 -18 -96 -18 -83 0 -90 2 -90 20 0 10 -6 34 -14 52 -8 18 -21 51 -29 73 -32 86 -46 123 -77 200 -18 44 -39 98 -47 120 -8 22 -21 53 -29 68 -8 16 -14 35 -14 44 0 15 -6 28 -48 110 -12 23 -22 53 -22 67 l0 26 93 0 c88 0 94 -1 106 -24z m-1007 -6 l71 0 -6 -105 c-4 -78 -3 -105 6 -106 7 0 35 -1 62 -2 l50 -2 -3 -65 c-2 -36 -9 -71 -14 -78 -7 -8 -29 -12 -57 -10 l-46 3 4 -192 c2 -108 0 -193 -5 -193 -19 -1 -160 -2 -170 -1 -9 1 -11 55 -10 194 l1 192 -55 0 -55 0 -7 65 c-10 87 -8 92 49 90 27 -1 54 -1 62 -1 11 1 12 20 7 105 -7 107 -3 121 32 110 8 -2 45 -4 84 -4z m3276 1 c11 -6 12 -30 7 -110 l-8 -101 67 0 66 0 0 -74 c0 -90 -10 -102 -69 -86 -23 6 -47 8 -53 4 -8 -5 -9 -60 -5 -194 6 -146 4 -189 -6 -192 -6 -2 -50 -2 -96 0 l-84 4 4 191 4 192 -57 -3 c-43 -3 -58 -1 -59 10 -4 43 -4 125 -1 136 3 9 20 13 51 12 25 -2 52 -2 58 -1 10 1 11 26 6 106 l-6 104 79 4 c43 1 81 4 84 5 3 1 11 -2 18 -7z m-4949 -228 c9 -17 11 -17 39 0 35 20 151 24 170 5 8 -8 15 -8 26 1 9 8 44 11 102 9 l87 -3 14 -45 c8 -25 19 -58 25 -75 6 -16 14 -48 18 -70 11 -57 33 -117 45 -118 8 -2 43 114 74 243 17 72 14 70 117 70 73 0 94 -3 94 -14 0 -12 -28 -83 -76 -193 -14 -33 -26 -60 -59 -138 -10 -22 -24 -53 -31 -68 -8 -16 -14 -33 -14 -38 0 -5 -13 -37 -28 -71 -16 -35 -37 -83 -47 -108 -37 -93 -46 -115 -54 -130 -10 -19 -201 -28 -201 -9 0 11 30 69 41 79 10 9 89 178 89 190 0 7 -10 34 -21 59 -12 25 -29 62 -37 81 -8 19 -21 47 -29 62 -7 14 -13 35 -13 46 0 12 -4 23 -10 27 -5 3 -14 20 -19 38 -23 76 -40 112 -53 112 -7 0 -28 -24 -47 -52 -35 -54 -58 -65 -81 -38 -20 24 -56 17 -91 -17 l-32 -32 7 -162 c5 -128 4 -162 -6 -165 -7 -3 -49 -3 -94 -1 l-81 3 -2 270 -2 269 85 0 c71 0 87 -3 95 -17z m1017 2 c4 -8 14 -15 24 -15 10 0 23 7 30 15 9 11 34 15 95 15 61 0 86 -4 95 -15 7 -8 18 -15 24 -15 22 0 73 -56 100 -109 35 -72 41 -208 11 -267 -26 -51 -112 -134 -139 -134 -11 0 -34 -7 -50 -15 -35 -19 -65 -19 -90 0 -11 8 -26 15 -35 15 -8 0 -23 8 -33 17 -30 27 -34 6 -26 -119 4 -62 6 -119 3 -125 -3 -9 -32 -13 -96 -13 l-91 0 5 388 c3 213 6 388 6 390 1 1 37 2 81 2 62 0 82 -3 86 -15z m1265 -3 c60 -30 99 -63 123 -101 28 -45 56 -126 55 -160 -2 -85 -79 -208 -150 -242 -99 -47 -179 -60 -213 -34 -11 8 -30 15 -43 15 -28 0 -114 60 -139 98 -63 93 -71 177 -24 274 29 64 96 138 123 138 8 0 20 7 27 15 19 23 194 21 241 -3z m1229 3 c7 -8 21 -15 32 -15 10 0 21 7 24 15 5 12 24 15 88 15 l82 0 -1 -212 c0 -117 3 -239 8 -270 l7 -58 -89 0 c-50 0 -92 4 -95 9 -6 9 -75 -10 -108 -29 -25 -14 -60 -12 -82 5 -11 8 -30 15 -43 15 -13 0 -29 4 -36 10 -58 46 -87 74 -87 83 0 6 -6 18 -14 26 -7 9 -19 44 -26 79 -10 51 -11 74 -1 120 7 31 17 64 22 72 5 8 13 24 18 35 12 27 61 72 102 94 45 24 181 28 199 6z m483 -159 l-6 -174 26 -26 c35 -35 108 -34 122 2 4 10 6 97 5 195 l-1 178 92 -3 92 -3 -2 -194 c-2 -168 -5 -200 -21 -232 -23 -45 -96 -109 -124 -109 -12 -1 -32 -7 -46 -15 -33 -19 -81 -19 -116 0 -16 8 -39 15 -51 15 -13 0 -42 20 -71 49 -61 61 -70 99 -76 324 l-4 167 94 0 94 0 -7 -174z m-4419 99 c27 -8 62 -15 77 -15 34 0 59 -32 59 -76 0 -17 -7 -38 -16 -45 -18 -15 -171 -49 -221 -49 -49 0 -84 36 -90 92 -5 42 -3 50 25 78 36 35 85 40 166 15z"/> <path d="M5537 1681 c-45 -29 -60 -58 -58 -114 0 -40 6 -56 28 -79 23 -24 34 -28 82 -28 64 0 93 22 106 78 13 59 -2 100 -47 132 -47 35 -72 37 -111 11z"/> <path d="M6575 1685 c-80 -41 -99 -122 -44 -188 28 -35 34 -37 86 -37 64 0 92 21 113 85 18 54 -8 108 -65 135 -49 24 -52 24 -90 5z"/> <path d="M7868 1679 c-70 -37 -85 -125 -32 -189 23 -27 32 -30 80 -30 49 0 58 3 85 32 55 61 34 158 -42 191 -48 21 -45 21 -91 -4z"/> </g> </svg> 